<?xml version="1.0" standalone="no"?><!DOCTYPE svg PUBLIC "-//W3C//DTD SVG 1.1//EN" "http://www.w3.org/Graphics/SVG/1.1/DTD/svg11.dtd"><svg t="1614089323560" class="icon" viewBox="0 0 1024 1024" version="1.1" xmlns="http://www.w3.org/2000/svg" p-id="1389" xmlns:xlink="http://www.w3.org/1999/xlink" width="200" height="200"><defs><style type="text/css"></style></defs><path d="M0 0m450.56 0l122.88 0q450.56 0 450.56 450.56l0 122.88q0 450.56-450.56 450.56l-122.88 0q-450.56 0-450.56-450.56l0-122.88q0-450.56 450.56-450.56Z" fill="#FCA100" p-id="1390"></path><path d="M658.24768 307.2H363.58144c-19.7632 0-35.90144 16.13824-35.90144 35.90144v368.64c0 11.30496 13.33248 17.24416 21.7088 9.68704l25.53856-22.89664a13.02528 13.02528 0 0 1 17.57184 0.16384l37.49888 35.04128c4.48512 4.1984 11.22304 4.7104 16.2816 1.2288l57.26208-39.36256a13.02528 13.02528 0 0 1 14.70464 0l57.42592 39.40352a13.1072 13.1072 0 0 0 16.22016-1.14688l37.94944-35.04128a13.0048 13.0048 0 0 1 17.53088-0.12288l24.9856 22.56896a13.04576 13.04576 0 0 0 21.74976-9.68704V343.10144A35.92192 35.92192 0 0 0 658.26816 307.2zM364.3392 395.89888a18.432 18.432 0 0 1 18.39104-18.39104h110.3872a18.432 18.432 0 0 1 18.39104 18.39104 18.432 18.432 0 0 1-18.37056 18.39104h-110.40768a18.47296 18.47296 0 0 1-18.39104-18.39104z m183.296 73.40032a18.432 18.432 0 0 1-18.37056 18.39104h-146.5344a18.432 18.432 0 0 1-18.39104-18.39104 18.432 18.432 0 0 1 18.39104-18.37056h146.5344c10.1376 0 18.37056 8.25344 18.37056 18.37056z" fill="#FFFFFF" p-id="1391"></path></svg>