<?xml version="1.0" standalone="no"?><!DOCTYPE svg PUBLIC "-//W3C//DTD SVG 1.1//EN" "http://www.w3.org/Graphics/SVG/1.1/DTD/svg11.dtd"><svg t="1614089302566" class="icon" viewBox="0 0 1024 1024" version="1.1" xmlns="http://www.w3.org/2000/svg" p-id="1247" xmlns:xlink="http://www.w3.org/1999/xlink" width="200" height="200"><defs><style type="text/css"></style></defs><path d="M999.04 239.796C978.991 130.513 893.479 44.99 784.189 24.947 695.501 8.679 606.832 0.366 518.164 0h-12.335C417.161 0.366 328.485 8.679 239.81 24.947 130.515 44.99 44.999 130.513 24.952 239.796 8.576 329.072 0.259 418.347-0.001 507.623v8.734c0.26 89.276 8.577 178.551 24.954 267.827 20.046 109.283 105.562 194.81 214.857 214.859 90.729 16.628 181.458 24.954 272.183 24.954 90.731 0 181.457-8.326 272.196-24.954 109.289-20.049 194.802-105.576 214.851-214.859 16.641-90.741 24.953-181.452 24.953-272.194 0-90.726-8.312-181.453-24.953-272.194z" fill="#7F2D00" p-id="1248"></path><path d="M316.999 274.405a13.362 13.362 0 0 0-11.175-2.723c-60.469 13.912-103.37 67.644-103.542 129.669v177.711c58.48-43.699 136.625-50.629 201.891-17.909 65.264 32.729 106.448 99.487 106.421 172.494h-0.174a193.137 193.137 0 0 1-7.112 51.821h53.708a13.172 13.172 0 0 0 11.518-6.538 13.182 13.182 0 0 0 0.036-13.251c-36.607-63.302-25.688-143.358 26.521-194.538 52.227-51.184 132.481-60.506 195.034-22.649a13.235 13.235 0 0 0 13.37 0.199 13.165 13.165 0 0 0 6.675-11.583V401.353c-0.209-59.289-39.54-111.316-96.52-127.695a13.364 13.364 0 0 0-11.817 2.159 13.346 13.346 0 0 0-5.313 10.785v23.111c0 14.477-11.986 32.118-39.907 32.118-27.925 0-39.908-17.64-39.908-32.118v-27.995c0-7.335-5.949-13.273-13.285-13.273H415.018c-7.335 0-13.273 5.938-13.273 13.273v27.995c0 14.477-11.999 32.118-39.908 32.118-27.92 0-39.917-17.64-39.917-32.118v-24.927a13.356 13.356 0 0 0-4.921-10.381zM711.86 381.919c9.764 0.037 17.679 7.95 17.727 17.716v44.285c-0.048 9.765-7.963 17.677-17.727 17.726H300.769c-9.778-0.049-17.677-7.96-17.727-17.726v-44.285c0.049-9.766 7.949-17.679 17.727-17.716H711.86z" fill="#FFFFFF" p-id="1249"></path><path d="M684.969 307.822V243.6c0-9.593-6.687-21.405-26.558-21.405-19.864 0-26.55 11.726-26.55 21.405v64.222c0 9.594 7.962 21.419 26.55 21.419 18.583 0 26.558-11.385 26.558-21.419zM389.66 307.822V243.6c0-9.593-6.673-21.405-26.548-21.405-19.86 0-26.888 11.812-26.888 21.405v64.222c0 9.594 7.961 21.419 26.545 21.419 18.586 0 26.891-11.385 26.891-21.419z" fill="#FFFFFF" p-id="1250"></path><path d="M829.359 683.717c0-67.633-54.837-122.469-122.47-122.469-67.642 0-122.466 54.836-122.466 122.469 0 67.631 54.824 122.47 122.466 122.47 67.633 0 122.47-54.839 122.47-122.47z m-150.732 50.186l-43.847-43.845a19.963 19.963 0 0 1 8.491-34.252c7.178-1.766 14.759 0.563 19.68 6.075l29.812 29.797 58.145-58.149a19.947 19.947 0 0 1 19.679-6.061 19.952 19.952 0 0 1 14.563 14.563 19.972 19.972 0 0 1-6.061 19.677v-0.086l-72.28 72.28c-7.796 7.768-20.393 7.768-28.182 0.001z" fill="#FFFFFF" p-id="1251"></path><path d="M503.394 785.466c22.182-79.481-8.674-164.253-76.723-210.916-68.061-46.644-158.263-44.832-224.386 4.513v73.483c0.235 73.338 59.657 132.734 132.995 132.92h168.114z" fill="#FFFFFF" opacity=".4" p-id="1252"></path></svg>